# xmcd
#
# Track frame offsets:
#	150
#	15038
#	32922
#	41733
#	58034
#	67876
#	81148
#	98503
#	116579
#	144040
#	157831
#	169126
#	182024
#	192784
#	205939
#	227485
#	242131
#	250695
#	271318
#	291345
#	314380
#	328922
#	341201
#
# Disc length: 4708 seconds
#
# Revision: 1
# Processed by: cddbd v1.5.2PL0 Copyright (c) Steve Scherf et al.
# Submitted via: audiograbber 1.83.01
#
DISCID=38126217
DTITLE=Various Artist - Super Blues World
DYEAR=1969
DGENRE=Blues
TTITLE0=Frijid Pink - Drivin' Blues
TTITLE1=Black Cat Bones - Death Valley Blues
TTITLE2=Savoy Brown - Where Am I
TTITLE3=John Mayall - Oh Pretty Woman
TTITLE4=Rod Stewart - Good Morning Little Schoolgirl
TTITLE5=The Bintangs - Travelling In The U.S.A.
TTITLE6=Ten Years After - Speed Kills
TTITLE7=Keef Hartley Band - Not Foolish, Not Wise
TTITLE8=Frijid Pink - Boozin' Blues
TTITLE9=Pacific Drift - Plaster Caster's U.S.A.
TTITLE10=Blues Dimension - Don't Wanna Lose Her
TTITLE11=Otis Spann - Pretty Girls Everywhere
TTITLE12=Savoy Brown - A Hard Way To Go
TTITLE13=Frijid Pink - Tell Me Why
TTITLE14=John Mayall - So Many Roads
TTITLE15=Pacific Drift - Just Another Girl
TTITLE16=Blues Dimension - Sticks And Stones
TTITLE17=Ten Years After - Going To Try
TTITLE18=Keef Hartley Band - Don't Be Afraid
TTITLE19=The Elastic Band - Dear John
TTITLE20=John Mayall - Don't Kick Me
TTITLE21=The Bintangs - Ridin' On The L and N
TTITLE22=Black Cat Bones - Save My Love
EXTD=
EXTT0=
EXTT1=
EXTT2=
EXTT3=
EXTT4=
EXTT5=
EXTT6=
EXTT7=
EXTT8=
EXTT9=
EXTT10=
EXTT11=
EXTT12=
EXTT13=
EXTT14=
EXTT15=
EXTT16=
EXTT17=
EXTT18=
EXTT19=
EXTT20=
EXTT21=
EXTT22=
PLAYORDER=
